<svg width="18" height="18" viewBox="0 0 18 18" fill="none" xmlns="http://www.w3.org/2000/svg">
<path d="M16.8155 0.504272H1.18356C0.807625 0.504272 0.503906 0.807991 0.503906 1.18392V16.8159C0.503906 17.1918 0.807625 17.4955 1.18356 17.4955H16.8155C17.1914 17.4955 17.4951 17.1918 17.4951 16.8159V1.18392C17.4951 0.807991 17.1914 0.504272 16.8155 0.504272ZM14.853 5.46359H13.4958C12.4318 5.46359 12.2257 5.96908 12.2257 6.71245V8.34998H14.7659L14.4346 10.9135H12.2257V17.4955H9.57723V10.9157H7.362V8.34998H9.57723V6.4597C9.57723 4.26571 10.9174 3.06995 12.8757 3.06995C13.8144 3.06995 14.6194 3.14004 14.8551 3.1719V5.46359H14.853Z" fill="white"/>
</svg>
