<svg width="18" height="18" viewBox="0 0 18 18" fill="none" xmlns="http://www.w3.org/2000/svg">
<path d="M8.99986 6.13619C7.4229 6.13619 6.13599 7.4231 6.13599 9.00005C6.13599 10.577 7.4229 11.8639 8.99986 11.8639C10.5768 11.8639 11.8637 10.577 11.8637 9.00005C11.8637 7.4231 10.5768 6.13619 8.99986 6.13619ZM17.5893 9.00005C17.5893 7.81411 17.6001 6.63892 17.5335 5.45513C17.4669 4.08013 17.1532 2.85982 16.1477 1.85435C15.1401 0.846733 13.9219 0.535209 12.5469 0.468608C11.361 0.402006 10.1858 0.412748 9.00201 0.412748C7.81607 0.412748 6.64087 0.402006 5.45709 0.468608C4.08208 0.535209 2.86177 0.848881 1.8563 1.85435C0.848686 2.86197 0.537162 4.08013 0.470561 5.45513C0.403959 6.64107 0.414702 7.81626 0.414702 9.00005C0.414702 10.1838 0.403959 11.3612 0.470561 12.545C0.537162 13.92 0.850834 15.1403 1.8563 16.1458C2.86392 17.1534 4.08208 17.4649 5.45709 17.5315C6.64302 17.5981 7.81822 17.5874 9.00201 17.5874C10.1879 17.5874 11.3631 17.5981 12.5469 17.5315C13.9219 17.4649 15.1422 17.1512 16.1477 16.1458C17.1553 15.1381 17.4669 13.92 17.5335 12.545C17.6022 11.3612 17.5893 10.186 17.5893 9.00005ZM8.99986 13.4065C6.56138 13.4065 4.59341 11.4385 4.59341 9.00005C4.59341 6.56158 6.56138 4.59361 8.99986 4.59361C11.4383 4.59361 13.4063 6.56158 13.4063 9.00005C13.4063 11.4385 11.4383 13.4065 8.99986 13.4065ZM13.5868 5.44224C13.0174 5.44224 12.5577 4.98247 12.5577 4.41314C12.5577 3.8438 13.0174 3.38404 13.5868 3.38404C14.1561 3.38404 14.6159 3.8438 14.6159 4.41314C14.616 4.54833 14.5895 4.68223 14.5379 4.80716C14.4862 4.93209 14.4104 5.04561 14.3148 5.1412C14.2192 5.2368 14.1057 5.31259 13.9808 5.36425C13.8559 5.41591 13.722 5.44241 13.5868 5.44224Z" fill="white"/>
</svg>
