<svg width="26" height="27" viewBox="0 0 26 27" fill="none" xmlns="http://www.w3.org/2000/svg">
<path fill-rule="evenodd" clip-rule="evenodd" d="M11.7882 5.06455C7.70085 5.06455 4.38736 8.37804 4.38736 12.4654C4.38736 16.5528 7.70085 19.8663 11.7882 19.8663C15.8756 19.8663 19.1891 16.5528 19.1891 12.4654C19.1891 8.37804 15.8756 5.06455 11.7882 5.06455ZM2.27283 12.4654C2.27283 7.21021 6.53302 2.95001 11.7882 2.95001C17.0435 2.95001 21.3037 7.21021 21.3037 12.4654C21.3037 17.7207 17.0435 21.9809 11.7882 21.9809C6.53302 21.9809 2.27283 17.7207 2.27283 12.4654Z" fill="white"/>
<path fill-rule="evenodd" clip-rule="evenodd" d="M17.0142 17.6914C17.4271 17.2785 18.0965 17.2785 18.5094 17.6914L23.1085 22.2905C23.5214 22.7034 23.5214 23.3728 23.1085 23.7857C22.6956 24.1986 22.0262 24.1986 21.6133 23.7857L17.0142 19.1866C16.6013 18.7737 16.6013 18.1043 17.0142 17.6914Z" fill="white"/>
</svg>
