<svg width="26" height="26" viewBox="0 0 26 26" fill="none" xmlns="http://www.w3.org/2000/svg">
<g clip-path="url(#clip0_2_294)">
<path fill-rule="evenodd" clip-rule="evenodd" d="M7.99121 22.5581C7.99121 21.3903 8.93792 20.4435 10.1057 20.4435C11.2736 20.4435 12.2203 21.3903 12.2203 22.5581C12.2203 23.7259 11.2736 24.6726 10.1057 24.6726C8.93792 24.6726 7.99121 23.7259 7.99121 22.5581Z" fill="#2F294D"/>
<path fill-rule="evenodd" clip-rule="evenodd" d="M19.6212 22.5581C19.6212 21.3903 20.5679 20.4435 21.7357 20.4435C22.9035 20.4435 23.8502 21.3903 23.8502 22.5581C23.8502 23.7259 22.9035 24.6726 21.7357 24.6726C20.5679 24.6726 19.6212 23.7259 19.6212 22.5581Z" fill="#2F294D"/>
<path fill-rule="evenodd" clip-rule="evenodd" d="M0.590332 1.41268C0.590332 0.828763 1.06369 0.355408 1.6476 0.355408H5.87668C6.3806 0.355408 6.81448 0.711057 6.91338 1.20518L7.80136 5.64175H24.9075C25.2226 5.64175 25.5213 5.78229 25.7221 6.02507C25.923 6.26785 26.0051 6.58756 25.9461 6.89708L24.2529 15.7755C24.1079 16.5056 23.7107 17.1615 23.1308 17.6283C22.5538 18.0928 21.8326 18.3406 21.0922 18.329H10.8338C10.0935 18.3406 9.37222 18.0928 8.79524 17.6283C8.21562 17.1617 7.81849 16.5062 7.67332 15.7764C7.67326 15.7761 7.67338 15.7767 7.67332 15.7764L5.90711 6.95192C5.89995 6.92273 5.894 6.89306 5.88931 6.86298L5.01005 2.46995H1.6476C1.06369 2.46995 0.590332 1.99659 0.590332 1.41268ZM8.22458 7.75629L9.74717 15.3635C9.79551 15.6069 9.92791 15.8255 10.1212 15.9811C10.3145 16.1367 10.5563 16.2194 10.8044 16.2146L10.8247 16.2144H21.1013L21.1216 16.2146C21.3697 16.2194 21.6116 16.1367 21.8048 15.9811C21.9972 15.8263 22.1293 15.6089 22.1782 15.3669L23.6296 7.75629H8.22458Z" fill="#2F294D"/>
</g>
<defs>
<clipPath id="clip0_2_294">
<rect width="25.3745" height="25.3745" fill="white" transform="translate(0.590332 0.355408)"/>
</clipPath>
</defs>
</svg>
