<svg width="13" height="13" viewBox="0 0 13 13" fill="none" xmlns="http://www.w3.org/2000/svg">
<path d="M6.91099 0.173835C6.94815 0.10127 7.05185 0.10127 7.08901 0.173834L8.92922 3.76772C8.94375 3.79609 8.97092 3.81583 9.00239 3.82088L12.989 4.46045C13.0695 4.47337 13.1016 4.572 13.044 4.62976L10.1947 7.49048C10.1722 7.51306 10.1618 7.54501 10.1668 7.57649L10.7904 11.5657C10.803 11.6462 10.7191 11.7072 10.6464 11.6703L7.04522 9.84443C7.0168 9.83002 6.9832 9.83002 6.95478 9.84443L3.35358 11.6703C3.28087 11.7072 3.19697 11.6462 3.20956 11.5657L3.83323 7.57649C3.83816 7.54501 3.82778 7.51306 3.80529 7.49048L0.955954 4.62976C0.898423 4.572 0.93047 4.47337 1.01096 4.46045L4.99761 3.82088C5.02908 3.81583 5.05625 3.79609 5.07078 3.76772L6.91099 0.173835Z" fill="#E9A426"/>
</svg>
